<svg width="97" height="16" fill="none" xmlns="http://www.w3.org/2000/svg"><g clip-path="url(#a)"><path d="m8.5 12.174-4.702 2.632 1.05-5.286L.891 5.862l5.352-.635L8.5.333l2.257 4.894 5.352.635-3.957 3.658 1.05 5.286L8.5 12.174Z" fill="#F4C300"/></g><g clip-path="url(#b)"><path d="m28.5 12.174-4.702 2.632 1.05-5.286-3.957-3.658 5.352-.635L28.5.333l2.257 4.894 5.352.635-3.957 3.658 1.05 5.286-4.702-2.632Z" fill="#F4C300"/></g><g clip-path="url(#c)"><path d="m48.5 12.174-4.702 2.632 1.05-5.286-3.957-3.658 5.352-.635L48.5.333l2.257 4.894 5.352.635-3.957 3.658 1.05 5.286-4.702-2.632Z" fill="#F4C300"/></g><g clip-path="url(#d)"><path d="m68.5 12.174-4.702 2.632 1.05-5.286-3.957-3.658 5.352-.635L68.5.333l2.257 4.894 5.352.635-3.957 3.658 1.05 5.286-4.702-2.632Z" fill="#F4C300"/></g><g clip-path="url(#e)"><path d="m88.5 12.174-4.702 2.632 1.05-5.286-3.957-3.658 5.352-.635L88.5.333l2.257 4.894 5.352.635-3.957 3.658 1.05 5.286-4.702-2.632Z" fill="#F4C300"/></g><defs><clipPath id="a"><path fill="#fff" transform="translate(.5)" d="M0 0h16v16H0z"/></clipPath><clipPath id="b"><path fill="#fff" transform="translate(20.5)" d="M0 0h16v16H0z"/></clipPath><clipPath id="c"><path fill="#fff" transform="translate(40.5)" d="M0 0h16v16H0z"/></clipPath><clipPath id="d"><path fill="#fff" transform="translate(60.5)" d="M0 0h16v16H0z"/></clipPath><clipPath id="e"><path fill="#fff" transform="translate(80.5)" d="M0 0h16v16H0z"/></clipPath></defs></svg>